<?xml version="1.0" standalone="no"?>
<!DOCTYPE svg PUBLIC "-//W3C//DTD SVG 20010904//EN"
 "http://www.w3.org/TR/2001/REC-SVG-20010904/DTD/svg10.dtd">
<svg version="1.0" xmlns="http://www.w3.org/2000/svg"
 width="512.000000pt" height="512.000000pt" viewBox="0 0 512.000000 512.000000"
 preserveAspectRatio="xMidYMid meet">

<g transform="translate(0.000000,512.000000) scale(0.100000,-0.100000)"
fill="#000000" stroke="none">
<path d="M458 4776 c-52 -19 -83 -40 -111 -78 -37 -50 -47 -92 -47 -194 l0
-94 -64 0 c-88 0 -159 -37 -201 -105 l-30 -48 -3 -374 -3 -373 76 0 75 0 0
349 c0 337 1 349 21 375 18 22 28 26 75 26 l54 0 0 -826 0 -826 -57 4 c-97 8
-93 -8 -93 399 l0 349 -75 0 -75 0 0 -357 c0 -339 2 -360 21 -403 40 -88 100
-128 210 -137 l69 -6 0 -86 c0 -111 13 -153 62 -207 66 -72 88 -76 369 -72
l246 3 41 28 c56 37 91 92 102 163 6 32 10 206 10 387 l0 327 194 0 195 0 -6
-67 -5 -68 226 -282 226 -283 2 -982 3 -983 323 -3 322 -2 0 75 0 75 -247 2
-248 3 -3 934 -2 934 -217 271 c-119 149 -219 276 -224 281 -12 17 48 730 65
763 26 50 39 52 429 52 325 0 365 -2 387 -17 35 -24 48 -43 60 -85 18 -65 -26
-134 -100 -156 -19 -6 -125 -20 -235 -32 -110 -11 -215 -23 -233 -26 l-32 -5
2 -272 3 -272 73 -3 72 -3 0 76 0 75 650 0 650 0 0 -119 0 -119 -105 -212
-105 -211 0 -929 0 -930 -245 0 -245 0 0 -75 0 -75 320 0 320 0 0 990 0 990
105 210 105 210 0 135 0 135 190 0 190 0 0 -327 c0 -181 4 -355 10 -387 11
-71 46 -126 102 -163 l41 -28 246 -3 c281 -4 303 0 369 72 49 54 62 96 62 207
l0 86 69 6 c110 9 170 49 210 137 20 44 21 61 21 830 0 482 -4 798 -10 819
-28 98 -116 161 -227 161 l-63 0 0 91 c0 51 -5 109 -11 130 -16 50 -61 105
-112 132 -39 21 -57 22 -270 25 -258 4 -299 -3 -359 -62 -73 -71 -73 -68 -76
-483 l-4 -373 -189 0 -189 0 0 55 c0 171 -140 305 -305 292 -34 -2 -75 -11
-92 -20 l-30 -16 -13 40 c-19 55 -82 125 -144 156 -72 37 -170 38 -242 3 l-51
-25 -38 43 c-85 98 -222 126 -338 69 -33 -17 -72 -47 -93 -71 l-35 -42 -52 25
c-131 65 -304 6 -369 -127 -20 -42 -24 -66 -28 -212 l-5 -165 -322 -3 -321 -2
-4 372 c-3 416 -3 413 -76 484 -58 57 -98 64 -341 64 -154 -1 -227 -5 -253
-14z m486 -157 l26 -20 0 -1160 c0 -1146 0 -1159 -20 -1179 -19 -19 -33 -20
-239 -20 l-220 0 -20 26 c-21 27 -21 28 -21 1176 l0 1149 25 24 c24 25 25 25
233 25 197 0 211 -1 236 -21z m3707 -8 c18 -23 19 -56 19 -1171 0 -1146 0
-1147 -21 -1174 l-20 -26 -220 0 c-206 0 -220 1 -239 20 -20 20 -20 33 -20
1179 l0 1160 27 21 c26 20 36 21 241 18 211 -3 214 -3 233 -27z m-2096 -285
c56 -37 60 -53 63 -278 l3 -208 -28 12 c-15 6 -77 14 -138 17 l-110 6 0 185
c0 167 2 188 20 219 39 67 127 88 190 47z m-419 -93 c47 -30 54 -60 54 -218
l0 -145 -130 0 -130 0 0 148 c0 126 3 151 19 178 37 61 124 79 187 37z m844
-1 c57 -42 60 -61 60 -375 0 -312 -3 -334 -55 -375 -42 -33 -87 -38 -137 -13
-78 37 -78 38 -78 386 0 347 1 352 75 387 46 22 97 18 135 -10z m1969 2 c21
-26 21 -33 21 -795 0 -422 -3 -775 -6 -784 -9 -24 -58 -45 -104 -45 l-40 0 0
825 0 825 54 0 c47 0 57 -4 75 -26z m-1561 -184 c67 -41 72 -61 72 -291 0
-197 -1 -207 -23 -240 -50 -76 -137 -86 -205 -24 l-37 33 -3 219 c-2 197 -1
221 16 252 35 66 118 89 180 51z m-1798 -334 c0 -3 -4 -16 -10 -31 -5 -14 -16
-112 -25 -218 -8 -105 -17 -220 -21 -254 l-6 -63 -199 0 -199 0 0 285 0 285
230 0 c127 0 230 -2 230 -4z m2400 -281 l0 -285 -915 0 -915 0 0 58 0 58 189
22 c192 21 237 33 303 78 l36 25 43 -31 c109 -79 262 -74 356 12 l21 20 51
-35 c123 -85 271 -68 374 42 56 60 77 124 77 238 l0 83 190 0 190 0 0 -285z"/>
<path d="M4330 4415 l0 -75 75 0 75 0 0 75 0 75 -75 0 -75 0 0 -75z"/>
<path d="M4330 4115 l0 -75 75 0 75 0 0 75 0 75 -75 0 -75 0 0 -75z"/>
</g>
</svg>
